#!OML:ASF I:\Actors\actors\Patient Classification 1\Patient 1\Session 1\Subject1.ASF
:FULLY-SPECIFIED
:DEGREES
669
root 0.789526 17.5181 9.34247 9.20611 -1.07064 -8.8134
lowerback -0.212525 1.53812 5.64459
upperback -7.45551 2.38227 1.34886
thorax -7.5326 0.866378 -1.88196
lowerneck -15.0795 -1.51808 1.62257
upperneck 28.5732 -3.67524 3.296
head 11.9171 -1.04762 0.417132
rclavicle -1.07344e-014 -1.19271e-014
rhumerus 8.37854 48.968 -75.9644
rradius 87.5467
rwrist 0.296111
rhand 19.3945 -62.4612
rfingers 7.12502
rthumb 43.9706 -86.355
lclavicle -1.07344e-014 -1.19271e-014
lhumerus -27.5289 -14.9939 92.0149
lradius 100.372
lwrist 13.6383
lhand -17.2692 -13.2232
lfingers 7.12502
lthumb 8.9756 16.5659
rfemur -4.16426 25.2635 24.9375
rtibia 3.0725
rfoot -12.1427 -25.217
rtoes -0.216757
lfemur 5.13166 -42.3276 -12.4784
ltibia -4.30489
lfoot -19.2489 49.6322
ltoes 5.77132
670
root 0.78577 17.5179 9.33288 9.17713 -0.755683 -8.71515
lowerback -0.122017 1.40728 5.44171
upperback -7.38984 2.20447 1.38106
thorax -7.53252 0.793791 -1.72734
lowerneck -15.2135 -1.4547 1.48041
upperneck 28.5641 -3.63488 3.58258
head 11.9509 -1.006 0.553414
rclavicle -1.32689e-014 2.78299e-015
rhumerus 8.17402 48.7597 -76.6883
rradius 87.4081
rwrist 0.202988
rhand 18.745 -61.9633
rfingers 7.12502
rthumb 43.3642 -86.0792
lclavicle -1.32689e-014 2.78299e-015
lhumerus -24.9841 -14.3619 91.5911
lradius 98.953
lwrist 25.6328
lhand -18.1052 -12.6268
lfingers 7.12502
lthumb 8.16881 17.1953
rfemur -4.10265 25.2074 24.8609
rtibia 2.99897
rfoot -12.2231 -25.4456
rtoes 0.208061
lfemur 5.07546 -42.7174 -12.5619
ltibia -4.27557
lfoot -19.1629 49.7248
ltoes 5.64537
671
root 0.780724 17.5181 9.31112 9.2059 -0.593164 -8.53729
lowerback 0.153229 1.34293 5.07328
upperback -7.36985 2.12361 1.40949
thorax -7.68598 0.774986 -1.49544
lowerneck -15.383 -1.42036 1.41306
upperneck 28.5083 -3.59957 3.68527
head 11.9671 -0.982804 0.607067
rclavicle 1.33683e-014 -2.0276e-014
rhumerus 8.04347 48.5421 -77.2511
rradius 87.3828
rwrist 0.275771
rhand 17.6372 -61.5791
rfingers 7.12502
rthumb 42.3279 -86.0583
lclavicle 1.33683e-014 -2.0276e-014
lhumerus -22.7759 -14.1032 91.3758
lradius 97.5223
lwrist 34.9195
lhand -20.5665 -12.302
lfingers 7.12502
lthumb 5.79292 17.5988
rfemur -4.26125 25.3662 24.596
rtibia 3.04199
rfoot -12.2908 -25.7506
rtoes 0.78788
lfemur 4.83907 -43.0582 -12.5769
ltibia -4.23188
lfoot -19.0783 49.8897
ltoes 5.59098
672
root 0.774327 17.5199 9.27503 9.29284 -0.631537 -8.37436
lowerback 0.707141 1.33317 4.64243
upperback -7.43123 2.13379 1.45613
thorax -8.08859 0.799613 -1.22319
lowerneck -15.5009 -1.38972 1.31209
upperneck 28.3705 -3.56844 3.83626
head 11.9421 -0.961526 0.683785
rclavicle -5.06901e-015 3.57812e-015
rhumerus 7.9233 48.3541 -77.7603
rradius 87.3799
rwrist 0.747352
rhand 16.4406 -61.3088
rfingers 7.12502
rthumb 41.2059 -86.1594
lclavicle -5.06901e-015 3.57812e-015
lhumerus -21.0333 -14.5735 91.4304
lradius 96.0518
lwrist 38.6597
lhand -24.6144 -13.5304
lfingers 7.12502
lthumb 1.88403 16.441
rfemur -4.69822 25.7002 24.2373
rtibia 3.26764
rfoot -12.3022 -26.049
rtoes 1.06084
lfemur 4.48055 -43.4329 -12.4478
ltibia -4.21776
lfoot -19.1794 50.263
ltoes 5.74836
673
root 0.769837 17.5227 9.25303 9.43705 -0.56757 -8.41079
lowerback 1.03485 1.29212 4.49446
upperback -7.48275 2.09899 1.5211
thorax -8.34575 0.788596 -1.07898
lowerneck -15.541 -1.36634 1.23585
upperneck 28.1493 -3.57755 4.08385
head 11.8715 -0.946381 0.78609
rclavicle 6.90777e-015 -1.82882e-014
rhumerus 7.83255 48.1697 -78.3037
rradius 87.3874
rwrist 1.4418
rhand 15.6612 -61.1776
rfingers 7.12502
rthumb 40.4737 -86.259
lclavicle 6.90777e-015 -1.82882e-014
lhumerus -19.6198 -15.2756 91.445
lradius 94.323
lwrist 34.4571
lhand -26.1712 -13.5011
lfingers 7.12502
lthumb 0.380362 16.4783
rfemur -5.04783 25.8454 24.1436
rtibia 3.36587
rfoot -12.317 -26.2112
rtoes 1.33547
lfemur 4.19019 -43.9067 -12.1521
ltibia -4.25995
lfoot -19.5735 50.6435
ltoes 6.35348
674
root 0.768746 17.5252 9.24593 9.63494 -0.465272 -8.5107
lowerback 1.10185 1.24537 4.51741
upperback -7.50834 2.04559 1.55838
thorax -8.41702 0.760377 -1.0501
lowerneck -15.5919 -1.3778 1.22844
upperneck 27.9258 -3.62369 4.22261
head 11.7993 -0.954767 0.830104
rclavicle 6.21202e-015 -2.54444e-014
rhumerus 7.79033 47.9575 -78.8418
rradius 87.4513
rwrist 2.03588
rhand 15.3222 -61.1478
rfingers 7.12502
rthumb 40.1549 -86.3269
lclavicle 6.21202e-015 -2.54444e-014
lhumerus -18.5843 -16.0428 91.3634
lradius 93.1215
lwrist 30.5938
lhand -25.8216 -14.3947
lfingers 7.12502
lthumb 0.718046 15.5838
rfemur -5.28521 25.8522 24.154
rtibia 3.32853
rfoot -12.3424 -26.2484
rtoes 1.60275
lfemur 3.94256 -44.3598 -11.8506
ltibia -4.29188
lfoot -20.1053 50.9418
ltoes 7.05444
